<svg width="1324" height="107" viewBox="0 0 1324 107" fill="none" xmlns="http://www.w3.org/2000/svg">
  <path d="M53.6624 74.172L78.296 1.9873H104.709L67.3291 104.059H37.2958L0 1.9873H28.2544L53.6624 74.172Z"
    fill="#FBF8EF" />
  <path
    d="M190.057 104.059H113.038V1.9873H188.99V26.1814H139.451V41.2086H189.032V64.6911H139.451V79.8438H190.057V104.038V104.059Z"
    fill="#FBF8EF" />
  <path d="M269.735 104.059H208.518V1.9873H234.93V79.0066H269.735V104.059Z" fill="#FBF8EF" />
  <path d="M300.145 104.059H273.67L308.957 1.9873H335.432L300.145 104.059Z" fill="#FBF8EF" />
  <path
    d="M363.163 104.059H337.608L337.462 1.9873H365.926L406.424 65.4027H406.989C406.696 56.0473 406.57 46.4827 406.57 36.7088V1.9873H431.915V104.059H403.514L363.163 40.6435H362.598C362.975 53.7451 363.163 65.612 363.163 76.244V104.08V104.059Z"
    fill="#FBF8EF" />
  <path
    d="M498.825 106.132C487.712 106.132 478.106 103.83 469.964 99.2252C461.823 94.6208 455.711 88.342 451.609 80.368C447.507 72.394 445.456 63.248 445.456 52.888C445.456 42.5281 447.507 33.4867 451.609 25.5545C455.711 17.6224 461.844 11.3855 469.964 6.82291C478.106 2.26035 487.733 0 498.825 0C507.218 0 514.815 1.31854 521.596 3.95561C528.377 6.59269 534.007 10.2553 538.465 14.9225C542.923 19.5897 546.356 25.1778 548.742 31.6449C551.127 38.1329 552.341 45.207 552.341 52.888C552.341 63.227 550.29 72.394 546.188 80.368C542.086 88.342 535.954 94.6208 527.791 99.2252C519.629 103.83 509.981 106.132 498.825 106.132ZM498.825 80.7238C506.569 80.7238 512.785 78.1704 517.515 73.0428C522.245 67.9152 524.589 61.1969 524.589 52.888C524.589 44.5791 522.224 37.9027 517.515 32.8169C512.785 27.7311 506.569 25.1987 498.825 25.1987C491.082 25.1987 484.866 27.7311 480.178 32.8169C475.489 37.9027 473.124 44.5791 473.124 52.888C473.124 61.1969 475.489 67.9152 480.198 73.0428C484.928 78.1704 491.124 80.7238 498.805 80.7238H498.825Z"
    fill="#FBF8EF" />
  <path
    d="M628.65 66.198L651.065 104.059H621.513L601.505 68.8979H588.968V104.059H562.556V1.9873H608.474C622.518 1.9873 632.982 5.00111 639.868 11.0287C646.754 17.0563 650.186 25.2187 650.186 35.5158C650.186 42.9666 648.407 49.3082 644.849 54.5614C641.291 59.8146 635.87 63.6865 628.629 66.198H628.65ZM607.218 24.7792H588.989V46.3571H607.218C617.411 46.3571 622.518 42.7573 622.518 35.5368C622.518 31.7486 621.241 29.0069 618.667 27.3116C616.113 25.6373 612.283 24.7792 607.198 24.7792H607.218Z"
    fill="#FBF8EF" />
  <path
    d="M753.722 105.986C745.078 105.986 737.376 104.689 730.616 102.114C723.856 99.5191 718.31 95.8774 713.956 91.1474C709.624 86.4174 706.338 80.8503 704.099 74.425C701.859 67.9998 700.75 60.8629 700.75 53.0354C700.75 45.2079 701.859 38.1548 704.099 31.7086C706.338 25.2833 709.624 19.7162 713.956 15.0071C718.289 10.319 723.856 6.65636 730.616 4.04022C737.376 1.42407 745.078 0.126465 753.722 0.126465C767.43 0.126465 778.313 3.24491 786.329 9.4818C794.345 15.7187 799.305 24.802 801.21 36.7107L773.814 41.629C772.684 36.6897 770.444 32.7341 767.116 29.7831C763.789 26.8112 759.184 25.3252 753.303 25.3252C745.287 25.3252 739.155 27.8158 734.906 32.7969C730.658 37.778 728.544 44.5591 728.544 53.161C728.544 61.7629 730.658 68.523 734.885 73.3367C739.113 78.1504 745.245 80.5573 753.324 80.5573C765.337 80.5573 772.558 74.5715 775.028 62.621L802.424 67.6021C800.436 80.0759 795.329 89.5986 787.125 96.1495C778.92 102.7 767.786 105.965 753.743 105.965L753.722 105.986Z"
    fill="#FBF8EF" />
  <path
    d="M911.736 104.059H883.754L875.006 79.8649H837.563L828.815 104.059H802.256L839.845 1.42236H874.148L911.736 104.08V104.059ZM856.211 28.2536L845.956 56.3614H866.529L856.358 28.2536H856.211Z"
    fill="#FBF8EF" />
  <path
    d="M946.417 104.059H920.004V1.9873H964.499C971.197 1.9873 977.162 2.92912 982.394 4.79181C987.626 6.67544 991.854 9.2288 995.035 12.4728C998.216 15.7168 1000.62 19.4004 1002.26 23.4816C1003.89 27.5628 1004.7 31.9369 1004.7 36.5832C1004.7 41.2295 1003.89 45.6037 1002.26 49.7267C1000.62 53.8289 998.216 57.5124 995.035 60.7564C991.854 64.0004 987.647 66.5747 982.436 68.4374C977.224 70.321 971.28 71.2419 964.646 71.2419H946.417V104.059ZM946.417 26.2024V46.7757H961.716C966.927 46.7757 970.799 46.0223 973.29 44.4944C975.78 42.9875 977.036 40.3505 977.036 36.5832C977.036 32.816 975.78 30.158 973.269 28.5674C970.757 26.9767 966.906 26.1814 961.737 26.1814H946.437L946.417 26.2024Z"
    fill="#FBF8EF" />
  <path d="M1019.19 104.059H992.712L1028 1.9873H1054.47L1019.19 104.059Z" fill="#FBF8EF" />
  <path d="M1115.36 104.059H1089.09V27.1232H1057.34V1.9873H1146.96V27.1232H1115.36V104.08V104.059Z" fill="#FBF8EF" />
  <path
    d="M1244.83 104.059H1216.84L1208.09 79.8649H1170.65L1161.9 104.059H1135.34L1172.93 1.42236H1207.24L1244.83 104.08V104.059ZM1189.32 28.2536L1179.07 56.3614H1199.64L1189.47 28.2536H1189.32Z"
    fill="#FBF8EF" />
  <path d="M1324 104.059H1253.09V1.9873H1279.5V79.0066H1324V104.059Z" fill="#FBF8EF" />
</svg>