<svg width="319" height="122" viewBox="0 0 319 122" fill="none" xmlns="http://www.w3.org/2000/svg">
  <path d="M26.2927 36.5902L38.3623 1.22217H51.3036L32.9889 51.2337H18.2736L0 1.22217H13.8437L26.2927 36.5902Z"
    fill="#FBF8EF" />
  <path
    d="M93.1206 51.2337H55.3838V1.22217H92.5976V13.0764H68.3251V20.4392H92.6181V31.9448H68.3251V39.3692H93.1206V51.2234V51.2337Z"
    fill="#FBF8EF" />
  <path d="M132.161 51.2337H102.166V1.22217H115.107V38.959H132.161V51.2337Z" fill="#FBF8EF" />
  <path d="M147.06 51.2337H134.088L151.377 1.22217H164.349L147.06 51.2337Z" fill="#FBF8EF" />
  <path
    d="M177.935 51.2337H165.415L165.343 1.22217H179.289L199.132 32.2935H199.408C199.265 27.7097 199.203 23.0234 199.203 18.2345V1.22217H211.622V51.2337H197.706L177.935 20.1623H177.659C177.843 26.5817 177.935 32.396 177.935 37.6054V51.2439V51.2337Z"
    fill="#FBF8EF" />
  <path
    d="M244.407 52.2485C238.962 52.2485 234.255 51.1205 230.266 48.8645C226.277 46.6085 223.283 43.5321 221.273 39.6251C219.263 35.7181 218.258 31.2369 218.258 26.1608C218.258 21.0848 219.263 16.6549 221.273 12.7684C223.283 8.8819 226.287 5.82604 230.266 3.59055C234.255 1.35505 238.972 0.247559 244.407 0.247559C248.519 0.247559 252.241 0.893596 255.564 2.18567C258.886 3.47775 261.645 5.2723 263.829 7.55906C266.013 9.84583 267.695 12.5838 268.864 15.7525C270.033 18.9314 270.628 22.3974 270.628 26.1608C270.628 31.2266 269.623 35.7181 267.613 39.6251C265.603 43.5321 262.599 46.6085 258.599 48.8645C254.6 51.1205 249.873 52.2485 244.407 52.2485ZM244.407 39.7994C248.201 39.7994 251.247 38.5484 253.564 36.036C255.882 33.5236 257.03 30.2319 257.03 26.1608C257.03 22.0898 255.872 18.8186 253.564 16.3267C251.247 13.8349 248.201 12.5941 244.407 12.5941C240.613 12.5941 237.567 13.8349 235.27 16.3267C232.973 18.8186 231.814 22.0898 231.814 26.1608C231.814 30.2319 232.973 33.5236 235.28 36.036C237.598 38.5484 240.633 39.7994 244.397 39.7994H244.407Z"
    fill="#FBF8EF" />
  <path
    d="M308.018 32.6832L319 51.2337H304.521L294.718 34.006H288.575V51.2337H275.634V1.22217H298.132C305.013 1.22217 310.14 2.69883 313.514 5.65214C316.888 8.60546 318.57 12.6047 318.57 17.65C318.57 21.3006 317.698 24.4077 315.955 26.9816C314.211 29.5555 311.556 31.4526 308.007 32.6832H308.018ZM297.517 12.3894H288.585V22.9618H297.517C302.511 22.9618 305.013 21.1981 305.013 17.6602C305.013 15.8042 304.388 14.4608 303.126 13.6302C301.875 12.8098 299.999 12.3894 297.507 12.3894H297.517Z"
    fill="#FBF8EF" />
  <path
    d="M33.8518 121.484C29.6166 121.484 25.8429 120.849 22.5307 119.587C19.2185 118.316 16.501 116.531 14.3681 114.214C12.2454 111.896 10.6354 109.169 9.5382 106.02C8.44096 102.872 7.89746 99.3754 7.89746 95.5402C7.89746 91.705 8.44096 88.2492 9.5382 85.0908C10.6354 81.9427 12.2454 79.215 14.3681 76.9077C16.4908 74.6107 19.2185 72.8161 22.5307 71.5343C25.8429 70.2525 29.6166 69.6167 33.8518 69.6167C40.5685 69.6167 45.9009 71.1446 49.8284 74.2005C53.7559 77.2564 56.1862 81.7068 57.1194 87.5417L43.6962 89.9515C43.1424 87.5314 42.0452 85.5933 40.4147 84.1474C38.7842 82.6913 36.5282 81.9632 33.6467 81.9632C29.7192 81.9632 26.7146 83.1835 24.6329 85.6241C22.5512 88.0647 21.5155 91.3871 21.5155 95.6018C21.5155 99.8164 22.5512 103.129 24.6227 105.487C26.6941 107.846 29.6987 109.025 33.6569 109.025C39.543 109.025 43.0809 106.092 44.2909 100.237L57.7141 102.677C56.7399 108.789 54.2378 113.455 50.218 116.665C46.1983 119.874 40.7428 121.474 33.862 121.474L33.8518 121.484Z"
    fill="#FBF8EF" />
  <path
    d="M111.272 120.54H97.5621L93.2757 108.686H74.9303L70.6439 120.54H57.6309L76.0481 70.2515H92.8553L111.272 120.55V120.54ZM84.0671 83.3978L79.0424 97.1697H89.1226L84.1389 83.3978H84.0671Z"
    fill="#FBF8EF" />
  <path
    d="M128.265 120.541H115.323V70.5293H137.124C140.406 70.5293 143.328 70.9908 145.892 71.9034C148.456 72.8263 150.527 74.0774 152.086 75.6668C153.645 77.2563 154.824 79.0611 155.624 81.0607C156.424 83.0604 156.823 85.2036 156.823 87.4801C156.823 89.7566 156.424 91.8998 155.624 93.92C154.824 95.9299 153.645 97.7347 152.086 99.3241C150.527 100.914 148.466 102.175 145.913 103.088C143.359 104.01 140.447 104.462 137.196 104.462H128.265V120.541ZM128.265 82.3938V92.4741H135.761C138.314 92.4741 140.211 92.1049 141.431 91.3563C142.652 90.618 143.267 89.3259 143.267 87.4801C143.267 85.6343 142.652 84.3319 141.421 83.5526C140.191 82.7732 138.304 82.3836 135.771 82.3836H128.275L128.265 82.3938Z"
    fill="#FBF8EF" />
  <path d="M163.92 120.541H150.948L168.237 70.5293H181.209L163.92 120.541Z" fill="#FBF8EF" />
  <path d="M211.039 120.541H198.169V82.845H182.613V70.5293H226.523V82.845H211.039V120.551V120.541Z" fill="#FBF8EF" />
  <path
    d="M274.474 120.54H260.763L256.477 108.686H238.132L233.845 120.54H220.832L239.249 70.2515H256.056L274.474 120.55V120.54ZM247.279 83.3978L242.254 97.1697H252.334L247.35 83.3978H247.279Z"
    fill="#FBF8EF" />
  <path d="M313.267 120.541H278.524V70.5293H291.466V108.266H313.267V120.541Z" fill="#FBF8EF" />
</svg>