<svg width="230" height="19" viewBox="0 0 230 19" fill="none" xmlns="http://www.w3.org/2000/svg">
  <path d="M9.32201 13.372L13.6013 0.832336H18.1896L11.6961 18.5638H6.47887L0 0.832336H4.90824L9.32201 13.372Z"
    fill="black" />
  <path
    d="M33.0162 18.5638H19.6367V0.832336H32.8308V5.03524H24.225V7.6457H32.8381V11.725H24.225V14.3573H33.0162V18.5602V18.5638Z"
    fill="black" />
  <path d="M46.8572 18.5638H36.2227V0.832336H40.811V14.2118H46.8572V18.5638Z" fill="black" />
  <path d="M52.1402 18.5638H47.541L53.6709 0.832336H58.2701L52.1402 18.5638Z" fill="black" />
  <path
    d="M63.0867 18.5638H58.6475L58.6221 0.832336H63.5667L70.6018 11.8486H70.7C70.6491 10.2234 70.6273 8.5619 70.6273 6.86401V0.832336H75.0301V18.5638H70.0964L63.0867 7.54753H62.9886C63.054 9.8235 63.0867 11.885 63.0867 13.7319V18.5674V18.5638Z"
    fill="black" />
  <path
    d="M86.6539 18.9237C84.7234 18.9237 83.0546 18.5238 81.6403 17.7239C80.226 16.9241 79.1643 15.8334 78.4517 14.4481C77.7391 13.0629 77.3828 11.4741 77.3828 9.67443C77.3828 7.87475 77.7391 6.30411 78.4517 4.92617C79.1643 3.54822 80.2296 2.46478 81.6403 1.67219C83.0546 0.879597 84.727 0.486938 86.6539 0.486938C88.1119 0.486938 89.4316 0.71599 90.6096 1.17409C91.7876 1.63219 92.7656 2.26845 93.54 3.07922C94.3144 3.88998 94.9107 4.86072 95.3251 5.98416C95.7396 7.11124 95.9505 8.34012 95.9505 9.67443C95.9505 11.4705 95.5942 13.0629 94.8816 14.4481C94.169 15.8334 93.1037 16.9241 91.6858 17.7239C90.2678 18.5238 88.5918 18.9237 86.6539 18.9237ZM86.6539 14.51C87.9991 14.51 89.079 14.0664 89.9006 13.1756C90.7223 12.2849 91.1295 11.1178 91.1295 9.67443C91.1295 8.23105 90.7187 7.07125 89.9006 6.18777C89.079 5.30428 87.9991 4.86436 86.6539 4.86436C85.3087 4.86436 84.2289 5.30428 83.4145 6.18777C82.6001 7.07125 82.1892 8.23105 82.1892 9.67443C82.1892 11.1178 82.6001 12.2849 83.4181 13.1756C84.2398 14.0664 85.316 14.51 86.6503 14.51H86.6539Z"
    fill="black" />
  <path
    d="M109.206 11.9868L113.1 18.5638H107.966L104.491 12.4558H102.313V18.5638H97.7246V0.832336H105.701C108.141 0.832336 109.959 1.35588 111.155 2.40297C112.351 3.45006 112.947 4.868 112.947 6.65678C112.947 7.9511 112.638 9.05272 112.02 9.96529C111.402 10.8779 110.461 11.5505 109.203 11.9868H109.206ZM105.483 4.79165H102.317V8.54009H105.483C107.254 8.54009 108.141 7.91474 108.141 6.66041C108.141 6.00235 107.919 5.52607 107.472 5.23157C107.028 4.94071 106.363 4.79165 105.48 4.79165H105.483Z"
    fill="black" />
  <path
    d="M130.933 18.8983C129.432 18.8983 128.094 18.6729 126.92 18.2257C125.745 17.7748 124.782 17.1422 124.026 16.3205C123.273 15.4989 122.702 14.5318 122.313 13.4156C121.924 12.2994 121.731 11.0596 121.731 9.69988C121.731 8.34012 121.924 7.11488 122.313 5.99507C122.702 4.8789 123.273 3.9118 124.026 3.09376C124.778 2.27936 125.745 1.6431 126.92 1.18864C128.094 0.73417 129.432 0.508755 130.933 0.508755C133.315 0.508755 135.205 1.05048 136.598 2.13393C137.99 3.21737 138.852 4.79528 139.183 6.86401L134.424 7.71841C134.227 6.86038 133.838 6.17322 133.26 5.66059C132.682 5.14431 131.882 4.88618 130.861 4.88618C129.468 4.88618 128.403 5.31883 127.665 6.18413C126.927 7.04944 126.56 8.22741 126.56 9.7217C126.56 11.216 126.927 12.3903 127.661 13.2265C128.396 14.0628 129.461 14.4809 130.864 14.4809C132.951 14.4809 134.206 13.4411 134.635 11.365L139.394 12.2304C139.048 14.3972 138.161 16.0515 136.736 17.1895C135.311 18.3275 133.377 18.8946 130.937 18.8946L130.933 18.8983Z"
    fill="black" />
  <path
    d="M158.384 18.5638H153.523L152.003 14.3609H145.499L143.979 18.5638H139.365L145.895 0.734165H151.854L158.384 18.5674V18.5638ZM148.738 5.39517L146.957 10.278H150.531L148.764 5.39517H148.738Z"
    fill="black" />
  <path
    d="M164.408 18.5638H159.819V0.832336H167.549C168.712 0.832336 169.749 0.995944 170.657 1.31952C171.566 1.64674 172.301 2.0903 172.853 2.65384C173.406 3.21738 173.824 3.85726 174.108 4.56623C174.391 5.2752 174.533 6.03507 174.533 6.8422C174.533 7.64933 174.391 8.4092 174.108 9.12544C173.824 9.83804 173.406 10.4779 172.853 11.0415C172.301 11.605 171.57 12.0522 170.665 12.3758C169.759 12.703 168.727 12.863 167.574 12.863H164.408V18.5638ZM164.408 5.03888V8.6128H167.065C167.971 8.6128 168.643 8.48191 169.076 8.21651C169.509 7.95473 169.727 7.49663 169.727 6.8422C169.727 6.18777 169.509 5.72603 169.072 5.44972C168.636 5.1734 167.967 5.03524 167.069 5.03524H164.411L164.408 5.03888Z"
    fill="black" />
  <path d="M177.049 18.5638H172.45L178.58 0.832336H183.179L177.049 18.5638Z" fill="black" />
  <path d="M193.755 18.5638H189.192V5.19885H183.677V0.832336H199.245V5.19885H193.755V18.5674V18.5638Z" fill="black" />
  <path
    d="M216.246 18.5638H211.385L209.865 14.3609H203.361L201.841 18.5638H197.228L203.757 0.734165H209.716L216.246 18.5674V18.5638ZM206.604 5.39517L204.823 10.278H208.397L206.63 5.39517H206.604Z"
    fill="black" />
  <path d="M230 18.5638H217.682V0.832336H222.27V14.2118H230V18.5638Z" fill="black" />
</svg>