<svg width="308" height="49" viewBox="0 0 308 49" fill="none" xmlns="http://www.w3.org/2000/svg">
  <path
    d="M5.47461 19H0.764648V0.794922H8.69922C9.89258 0.794922 10.9548 0.964193 11.8857 1.30273C12.8252 1.63281 13.5785 2.08984 14.1455 2.67383C14.7126 3.24935 15.14 3.90104 15.4277 4.62891C15.724 5.35677 15.8721 6.13542 15.8721 6.96484C15.8721 7.79427 15.724 8.57715 15.4277 9.31348C15.14 10.0413 14.7126 10.6973 14.1455 11.2812C13.5785 11.8568 12.8294 12.3138 11.8984 12.6523C10.9674 12.9824 9.90951 13.1475 8.72461 13.1475H5.47461V19ZM5.47461 5.11133V8.78027H8.2041C9.13509 8.78027 9.82064 8.64486 10.2607 8.37402C10.7093 8.10319 10.9336 7.63346 10.9336 6.96484C10.9336 6.29622 10.7093 5.82227 10.2607 5.54297C9.81217 5.25521 9.12663 5.11133 8.2041 5.11133H5.47461ZM32.4902 13.5918L33.4551 19H28.4658L27.8438 15.1787C27.6406 13.7907 26.7646 13.0967 25.2158 13.0967H22.4863V19H17.7764V0.794922H26.4092C28.6012 0.794922 30.3151 1.3112 31.5508 2.34375C32.7865 3.3763 33.4043 4.81087 33.4043 6.64746C33.4043 7.60384 33.1335 8.49674 32.5918 9.32617C32.0586 10.1471 31.3138 10.7734 30.3574 11.2051C31.5339 11.5267 32.2448 12.3223 32.4902 13.5918ZM22.4863 8.78027H25.9902C26.7773 8.78027 27.3867 8.61523 27.8184 8.28516C28.25 7.95508 28.4658 7.50651 28.4658 6.93945C28.4658 6.3724 28.25 5.92806 27.8184 5.60645C27.3867 5.27637 26.7773 5.11133 25.9902 5.11133H22.4863V8.78027ZM49.7178 19H35.9814V0.794922H49.5273V5.11133H40.6914V7.79004H48.9053V11.9795H40.6914V14.6836H49.7178V19ZM60.7627 19.3428C59.2223 19.3428 57.847 19.1143 56.6367 18.6572C55.4349 18.1917 54.4447 17.54 53.666 16.7021C52.8958 15.8558 52.3118 14.8613 51.9141 13.7188C51.5163 12.5677 51.3174 11.2939 51.3174 9.89746C51.3174 8.50944 51.5163 7.24414 51.9141 6.10156C52.3118 4.95052 52.8958 3.95605 53.666 3.11816C54.4447 2.28027 55.4349 1.62858 56.6367 1.16309C57.847 0.697591 59.2223 0.464844 60.7627 0.464844C63.2087 0.464844 65.1468 1.02344 66.5771 2.14062C68.0075 3.24935 68.8919 4.86589 69.2305 6.99023L64.3428 7.86621C64.1396 6.986 63.7419 6.28353 63.1494 5.75879C62.557 5.22559 61.736 4.95898 60.6865 4.95898C59.2562 4.95898 58.1602 5.40332 57.3984 6.29199C56.6452 7.18066 56.2686 8.39095 56.2686 9.92285C56.2686 11.4632 56.6452 12.665 57.3984 13.5283C58.1517 14.3831 59.2477 14.8105 60.6865 14.8105C62.8278 14.8105 64.1185 13.7441 64.5586 11.6113L69.4463 12.5C69.0908 14.7259 68.181 16.4229 66.7168 17.5908C65.2526 18.7588 63.2679 19.3428 60.7627 19.3428ZM75.21 19H70.4873L74.3594 0.794922H79.0947L75.21 19ZM86.9785 19.292C84.7272 19.292 82.8991 18.763 81.4941 17.7051C80.0977 16.6387 79.3063 15.1533 79.1201 13.249L83.6777 12.627C83.8555 13.5918 84.2279 14.2816 84.7949 14.6963C85.3704 15.1025 86.1576 15.3057 87.1562 15.3057C88.8066 15.3057 89.6318 14.7767 89.6318 13.7188C89.6318 13.2194 89.4033 12.8301 88.9463 12.5508C88.4977 12.263 87.7021 12.0218 86.5596 11.8271L84.7188 11.4844C81.3841 10.875 79.7168 9.10612 79.7168 6.17773C79.7168 4.34115 80.3219 2.9362 81.5322 1.96289C82.751 0.98112 84.486 0.490234 86.7373 0.490234C90.9437 0.490234 93.1908 2.33529 93.4785 6.02539L88.8701 6.74902C88.8024 5.89421 88.5824 5.27637 88.21 4.89551C87.846 4.50618 87.279 4.31152 86.5088 4.31152C85.8317 4.31152 85.3027 4.44694 84.9219 4.71777C84.541 4.98861 84.3506 5.36523 84.3506 5.84766C84.3506 6.28776 84.5241 6.62207 84.8711 6.85059C85.2181 7.0791 85.7725 7.27376 86.5342 7.43457L89.3652 8.00586C91.1257 8.35286 92.3783 8.96224 93.123 9.83398C93.8763 10.6973 94.2529 11.8652 94.2529 13.3379C94.2529 15.1914 93.6055 16.6471 92.3105 17.7051C91.0156 18.763 89.2383 19.292 86.9785 19.292ZM101.68 19H96.957V0.794922H101.68V19ZM113.728 19.3682C111.747 19.3682 110.029 18.9577 108.573 18.1367C107.126 17.3158 106.034 16.1943 105.298 14.7725C104.57 13.3506 104.206 11.7171 104.206 9.87207C104.206 8.03548 104.57 6.41048 105.298 4.99707C106.034 3.58366 107.126 2.4707 108.573 1.6582C110.029 0.845703 111.747 0.439453 113.728 0.439453C115.226 0.439453 116.58 0.676432 117.79 1.15039C119 1.61589 120.003 2.26758 120.799 3.10547C121.594 3.9349 122.204 4.92936 122.627 6.08887C123.059 7.23991 123.274 8.50098 123.274 9.87207C123.274 11.7171 122.906 13.3506 122.17 14.7725C121.442 16.1943 120.35 17.3158 118.895 18.1367C117.439 18.9577 115.716 19.3682 113.728 19.3682ZM113.728 14.8359C115.107 14.8359 116.216 14.3789 117.054 13.4648C117.9 12.5508 118.323 11.3532 118.323 9.87207C118.323 8.39095 117.9 7.19759 117.054 6.29199C116.216 5.38639 115.107 4.93359 113.728 4.93359C112.348 4.93359 111.239 5.38639 110.401 6.29199C109.563 7.19759 109.145 8.39095 109.145 9.87207C109.145 11.3532 109.563 12.5508 110.401 13.4648C111.248 14.3789 112.356 14.8359 113.728 14.8359ZM130.27 19H125.712L125.687 0.794922H130.765L137.988 12.1064H138.09C138.039 10.4391 138.014 8.73372 138.014 6.99023V0.794922H142.533V19H137.468L130.27 7.68848H130.168C130.236 10.0244 130.27 12.1403 130.27 14.0361V19ZM166.705 13.5918L167.67 19H162.681L162.059 15.1787C161.855 13.7907 160.979 13.0967 159.431 13.0967H156.701V19H151.991V0.794922H160.624C162.816 0.794922 164.53 1.3112 165.766 2.34375C167.001 3.3763 167.619 4.81087 167.619 6.64746C167.619 7.60384 167.348 8.49674 166.807 9.32617C166.273 10.1471 165.529 10.7734 164.572 11.2051C165.749 11.5267 166.46 12.3223 166.705 13.5918ZM156.701 8.78027H160.205C160.992 8.78027 161.602 8.61523 162.033 8.28516C162.465 7.95508 162.681 7.50651 162.681 6.93945C162.681 6.3724 162.465 5.92806 162.033 5.60645C161.602 5.27637 160.992 5.11133 160.205 5.11133H156.701V8.78027ZM175.16 19H170.438V0.794922H175.16V19ZM185.469 19.292C183.217 19.292 181.389 18.763 179.984 17.7051C178.588 16.6387 177.797 15.1533 177.61 13.249L182.168 12.627C182.346 13.5918 182.718 14.2816 183.285 14.6963C183.861 15.1025 184.648 15.3057 185.646 15.3057C187.297 15.3057 188.122 14.7767 188.122 13.7188C188.122 13.2194 187.894 12.8301 187.437 12.5508C186.988 12.263 186.192 12.0218 185.05 11.8271L183.209 11.4844C179.874 10.875 178.207 9.10612 178.207 6.17773C178.207 4.34115 178.812 2.9362 180.022 1.96289C181.241 0.98112 182.976 0.490234 185.228 0.490234C189.434 0.490234 191.681 2.33529 191.969 6.02539L187.36 6.74902C187.293 5.89421 187.073 5.27637 186.7 4.89551C186.336 4.50618 185.769 4.31152 184.999 4.31152C184.322 4.31152 183.793 4.44694 183.412 4.71777C183.031 4.98861 182.841 5.36523 182.841 5.84766C182.841 6.28776 183.014 6.62207 183.361 6.85059C183.708 7.0791 184.263 7.27376 185.024 7.43457L187.855 8.00586C189.616 8.35286 190.868 8.96224 191.613 9.83398C192.367 10.6973 192.743 11.8652 192.743 13.3379C192.743 15.1914 192.096 16.6471 190.801 17.7051C189.506 18.763 187.729 19.292 185.469 19.292ZM212.573 19H206.835L201.973 12.373L199.865 14.7598V19H195.206V0.794922H199.865V8.50098L206.733 0.794922H212.218L205.172 8.75488L212.573 19ZM218.667 19H213.932V14.3662H218.667V19ZM5.72852 48H1.00586V29.7949H5.72852V48ZM13.2441 48H8.68652L8.66113 29.7949H13.7393L20.9629 41.1064H21.0645C21.0137 39.4391 20.9883 37.7337 20.9883 35.9902V29.7949H25.5078V48H20.4424L13.2441 36.6885H13.1426C13.2103 39.0244 13.2441 41.1403 13.2441 43.0361V48ZM37.6699 48H32.9854V34.2764H27.3232V29.7949H43.3066V34.2764H37.6699V48ZM58.833 48H45.0967V29.7949H58.6426V34.1113H49.8066V36.79H58.0205V40.9795H49.8066V43.6836H58.833V48ZM74.1943 48H61.5498V29.7949H66.2598V43.5312H74.1943V48ZM88.7178 48H76.0732V29.7949H80.7832V43.5312H88.7178V48ZM94.3545 48H89.6318L93.5039 29.7949H98.2393L94.3545 48ZM108.408 42.0967V38.2246H116.546V48H112.521L112.382 46.1846C111.282 47.6234 109.669 48.3428 107.545 48.3428C105.59 48.3428 103.906 47.9365 102.492 47.124C101.087 46.3031 100.034 45.1901 99.3311 43.7852C98.637 42.3717 98.29 40.7425 98.29 38.8975C98.29 37.0439 98.6667 35.402 99.4199 33.9717C100.182 32.5413 101.265 31.4284 102.67 30.6328C104.075 29.8372 105.7 29.4479 107.545 29.4648C110.169 29.4733 112.204 30.015 113.651 31.0898C115.099 32.1562 115.996 33.7812 116.343 35.9648L111.48 36.8408C111.007 34.9027 109.741 33.9336 107.685 33.9336C106.254 33.9336 105.146 34.3822 104.358 35.2793C103.571 36.1764 103.178 37.391 103.178 38.9229C103.178 40.5055 103.58 41.7539 104.384 42.668C105.196 43.5736 106.432 44.0264 108.091 44.0264C109.86 44.0264 111.074 43.3831 111.734 42.0967H108.408ZM133.151 48H119.415V29.7949H132.961V34.1113H124.125V36.79H132.339V40.9795H124.125V43.6836H133.151V48ZM140.451 48H135.894L135.868 29.7949H140.946L148.17 41.1064H148.271C148.221 39.4391 148.195 37.7337 148.195 35.9902V29.7949H152.715V48H147.649L140.451 36.6885H140.35C140.417 39.0244 140.451 41.1403 140.451 43.0361V48ZM164.877 48H160.192V34.2764H154.53V29.7949H170.514V34.2764H164.877V48ZM193.264 42.5918L194.229 48H189.239L188.617 44.1787C188.414 42.7907 187.538 42.0967 185.989 42.0967H183.26V48H178.55V29.7949H187.183C189.375 29.7949 191.089 30.3112 192.324 31.3438C193.56 32.3763 194.178 33.8109 194.178 35.6475C194.178 36.6038 193.907 37.4967 193.365 38.3262C192.832 39.1471 192.087 39.7734 191.131 40.2051C192.307 40.5267 193.018 41.3223 193.264 42.5918ZM183.26 37.7803H186.764C187.551 37.7803 188.16 37.6152 188.592 37.2852C189.023 36.9551 189.239 36.5065 189.239 35.9395C189.239 35.3724 189.023 34.9281 188.592 34.6064C188.16 34.2764 187.551 34.1113 186.764 34.1113H183.26V37.7803ZM210.491 48H196.755V29.7949H210.301V34.1113H201.465V36.79H209.679V40.9795H201.465V43.6836H210.491V48ZM222.336 48H217.651V34.2764H211.989V29.7949H227.973V34.2764H222.336V48ZM238.002 48.3428C235.395 48.3428 233.364 47.653 231.908 46.2734C230.461 44.8854 229.737 43.0615 229.737 40.8018V29.7949H234.447V40.2812C234.447 41.5677 234.773 42.5241 235.425 43.1504C236.085 43.7682 236.952 44.0771 238.027 44.0771C239.077 44.0771 239.927 43.764 240.579 43.1377C241.239 42.5029 241.569 41.5508 241.569 40.2812V29.7949H246.254V40.8018C246.254 43.1631 245.505 45.0124 244.007 46.3496C242.509 47.6784 240.507 48.3428 238.002 48.3428ZM263.875 42.5918L264.84 48H259.851L259.229 44.1787C259.025 42.7907 258.149 42.0967 256.601 42.0967H253.871V48H249.161V29.7949H257.794C259.986 29.7949 261.7 30.3112 262.936 31.3438C264.171 32.3763 264.789 33.8109 264.789 35.6475C264.789 36.6038 264.518 37.4967 263.977 38.3262C263.443 39.1471 262.699 39.7734 261.742 40.2051C262.919 40.5267 263.63 41.3223 263.875 42.5918ZM253.871 37.7803H257.375C258.162 37.7803 258.771 37.6152 259.203 37.2852C259.635 36.9551 259.851 36.5065 259.851 35.9395C259.851 35.3724 259.635 34.9281 259.203 34.6064C258.771 34.2764 258.162 34.1113 257.375 34.1113H253.871V37.7803ZM271.949 48H267.392L267.366 29.7949H272.444L279.668 41.1064H279.77C279.719 39.4391 279.693 37.7337 279.693 35.9902V29.7949H284.213V48H279.147L271.949 36.6885H271.848C271.915 39.0244 271.949 41.1403 271.949 43.0361V48ZM294.471 48.292C292.219 48.292 290.391 47.763 288.986 46.7051C287.59 45.6387 286.799 44.1533 286.612 42.249L291.17 41.627C291.348 42.5918 291.72 43.2816 292.287 43.6963C292.863 44.1025 293.65 44.3057 294.648 44.3057C296.299 44.3057 297.124 43.7767 297.124 42.7188C297.124 42.2194 296.896 41.8301 296.438 41.5508C295.99 41.263 295.194 41.0218 294.052 40.8271L292.211 40.4844C288.876 39.875 287.209 38.1061 287.209 35.1777C287.209 33.3411 287.814 31.9362 289.024 30.9629C290.243 29.9811 291.978 29.4902 294.229 29.4902C298.436 29.4902 300.683 31.3353 300.971 35.0254L296.362 35.749C296.295 34.8942 296.075 34.2764 295.702 33.8955C295.338 33.5062 294.771 33.3115 294.001 33.3115C293.324 33.3115 292.795 33.4469 292.414 33.7178C292.033 33.9886 291.843 34.3652 291.843 34.8477C291.843 35.2878 292.016 35.6221 292.363 35.8506C292.71 36.0791 293.265 36.2738 294.026 36.4346L296.857 37.0059C298.618 37.3529 299.87 37.9622 300.615 38.834C301.368 39.6973 301.745 40.8652 301.745 42.3379C301.745 44.1914 301.098 45.6471 299.803 46.7051C298.508 47.763 296.73 48.292 294.471 48.292ZM307.991 48H303.256V43.3662H307.991V48Z"
    fill="black" />
</svg>