<svg width="1315" height="47" viewBox="0 0 1315 47" fill="none" xmlns="http://www.w3.org/2000/svg">
  <path
    d="M11.9375 46H0.34375V1.1875H19.875C22.8125 1.1875 25.4271 1.60417 27.7188 2.4375C30.0312 3.25 31.8854 4.375 33.2812 5.8125C34.6771 7.22917 35.7292 8.83333 36.4375 10.625C37.1667 12.4167 37.5312 14.3333 37.5312 16.375C37.5312 18.4167 37.1667 20.3438 36.4375 22.1562C35.7292 23.9479 34.6771 25.5625 33.2812 27C31.8854 28.4167 30.0417 29.5417 27.75 30.375C25.4583 31.1875 22.8542 31.5938 19.9375 31.5938H11.9375V46ZM11.9375 11.8125V20.8438H18.6562C20.9479 20.8438 22.6354 20.5104 23.7188 19.8438C24.8229 19.1771 25.375 18.0208 25.375 16.375C25.375 14.7292 24.8229 13.5625 23.7188 12.875C22.6146 12.1667 20.9271 11.8125 18.6562 11.8125H11.9375ZM78.4375 32.6875L80.8125 46H68.5312L67 36.5938C66.5 33.1771 64.3438 31.4688 60.5312 31.4688H53.8125V46H42.2188V1.1875H63.4688C68.8646 1.1875 73.0833 2.45833 76.125 5C79.1667 7.54167 80.6875 11.0729 80.6875 15.5938C80.6875 17.9479 80.0208 20.1458 78.6875 22.1875C77.375 24.2083 75.5417 25.75 73.1875 26.8125C76.0833 27.6042 77.8333 29.5625 78.4375 32.6875ZM53.8125 20.8438H62.4375C64.375 20.8438 65.875 20.4375 66.9375 19.625C68 18.8125 68.5312 17.7083 68.5312 16.3125C68.5312 14.9167 68 13.8229 66.9375 13.0312C65.875 12.2188 64.375 11.8125 62.4375 11.8125H53.8125V20.8438ZM120.844 46H87.0312V1.1875H120.375V11.8125H98.625V18.4062H118.844V28.7188H98.625V35.375H120.844V46ZM148.031 46.8438C144.24 46.8438 140.854 46.2812 137.875 45.1562C134.917 44.0104 132.479 42.4062 130.562 40.3438C128.667 38.2604 127.229 35.8125 126.25 33C125.271 30.1667 124.781 27.0312 124.781 23.5938C124.781 20.1771 125.271 17.0625 126.25 14.25C127.229 11.4167 128.667 8.96875 130.562 6.90625C132.479 4.84375 134.917 3.23958 137.875 2.09375C140.854 0.947917 144.24 0.375 148.031 0.375C154.052 0.375 158.823 1.75 162.344 4.5C165.865 7.22917 168.042 11.2083 168.875 16.4375L156.844 18.5938C156.344 16.4271 155.365 14.6979 153.906 13.4062C152.448 12.0938 150.427 11.4375 147.844 11.4375C144.323 11.4375 141.625 12.5312 139.75 14.7188C137.896 16.9062 136.969 19.8854 136.969 23.6562C136.969 27.4479 137.896 30.4062 139.75 32.5312C141.604 34.6354 144.302 35.6875 147.844 35.6875C153.115 35.6875 156.292 33.0625 157.375 27.8125L169.406 30C168.531 35.4792 166.292 39.6562 162.688 42.5312C159.083 45.4062 154.198 46.8438 148.031 46.8438ZM183.594 46H171.969L181.5 1.1875H193.156L183.594 46ZM212.562 46.7188C207.021 46.7188 202.521 45.4167 199.062 42.8125C195.625 40.1875 193.677 36.5312 193.219 31.8438L204.438 30.3125C204.875 32.6875 205.792 34.3854 207.188 35.4062C208.604 36.4062 210.542 36.9062 213 36.9062C217.062 36.9062 219.094 35.6042 219.094 33C219.094 31.7708 218.531 30.8125 217.406 30.125C216.302 29.4167 214.344 28.8229 211.531 28.3438L207 27.5C198.792 26 194.688 21.6458 194.688 14.4375C194.688 9.91667 196.177 6.45833 199.156 4.0625C202.156 1.64583 206.427 0.4375 211.969 0.4375C222.323 0.4375 227.854 4.97917 228.562 14.0625L217.219 15.8438C217.052 13.7396 216.51 12.2188 215.594 11.2812C214.698 10.3229 213.302 9.84375 211.406 9.84375C209.74 9.84375 208.438 10.1771 207.5 10.8438C206.562 11.5104 206.094 12.4375 206.094 13.625C206.094 14.7083 206.521 15.5312 207.375 16.0938C208.229 16.6562 209.594 17.1354 211.469 17.5312L218.438 18.9375C222.771 19.7917 225.854 21.2917 227.688 23.4375C229.542 25.5625 230.469 28.4375 230.469 32.0625C230.469 36.625 228.875 40.2083 225.688 42.8125C222.5 45.4167 218.125 46.7188 212.562 46.7188ZM248.75 46H237.125V1.1875H248.75V46ZM278.406 46.9062C273.531 46.9062 269.302 45.8958 265.719 43.875C262.156 41.8542 259.469 39.0938 257.656 35.5938C255.865 32.0938 254.969 28.0729 254.969 23.5312C254.969 19.0104 255.865 15.0104 257.656 11.5312C259.469 8.05208 262.156 5.3125 265.719 3.3125C269.302 1.3125 273.531 0.3125 278.406 0.3125C282.094 0.3125 285.427 0.895833 288.406 2.0625C291.385 3.20833 293.854 4.8125 295.812 6.875C297.771 8.91667 299.271 11.3646 300.312 14.2188C301.375 17.0521 301.906 20.1562 301.906 23.5312C301.906 28.0729 301 32.0938 299.188 35.5938C297.396 39.0938 294.708 41.8542 291.125 43.875C287.542 45.8958 283.302 46.9062 278.406 46.9062ZM278.406 35.75C281.802 35.75 284.531 34.625 286.594 32.375C288.677 30.125 289.719 27.1771 289.719 23.5312C289.719 19.8854 288.677 16.9479 286.594 14.7188C284.531 12.4896 281.802 11.375 278.406 11.375C275.01 11.375 272.281 12.4896 270.219 14.7188C268.156 16.9479 267.125 19.8854 267.125 23.5312C267.125 27.1771 268.156 30.125 270.219 32.375C272.302 34.625 275.031 35.75 278.406 35.75ZM319.125 46H307.906L307.844 1.1875H320.344L338.125 29.0312H338.375C338.25 24.9271 338.188 20.7292 338.188 16.4375V1.1875H349.312V46H336.844L319.125 18.1562H318.875C319.042 23.9062 319.125 29.1146 319.125 33.7812V46ZM408.812 32.6875L411.188 46H398.906L397.375 36.5938C396.875 33.1771 394.719 31.4688 390.906 31.4688H384.188V46H372.594V1.1875H393.844C399.24 1.1875 403.458 2.45833 406.5 5C409.542 7.54167 411.062 11.0729 411.062 15.5938C411.062 17.9479 410.396 20.1458 409.062 22.1875C407.75 24.2083 405.917 25.75 403.562 26.8125C406.458 27.6042 408.208 29.5625 408.812 32.6875ZM384.188 20.8438H392.812C394.75 20.8438 396.25 20.4375 397.312 19.625C398.375 18.8125 398.906 17.7083 398.906 16.3125C398.906 14.9167 398.375 13.8229 397.312 13.0312C396.25 12.2188 394.75 11.8125 392.812 11.8125H384.188V20.8438ZM429.625 46H418V1.1875H429.625V46ZM455 46.7188C449.458 46.7188 444.958 45.4167 441.5 42.8125C438.062 40.1875 436.115 36.5312 435.656 31.8438L446.875 30.3125C447.312 32.6875 448.229 34.3854 449.625 35.4062C451.042 36.4062 452.979 36.9062 455.438 36.9062C459.5 36.9062 461.531 35.6042 461.531 33C461.531 31.7708 460.969 30.8125 459.844 30.125C458.74 29.4167 456.781 28.8229 453.969 28.3438L449.438 27.5C441.229 26 437.125 21.6458 437.125 14.4375C437.125 9.91667 438.615 6.45833 441.594 4.0625C444.594 1.64583 448.865 0.4375 454.406 0.4375C464.76 0.4375 470.292 4.97917 471 14.0625L459.656 15.8438C459.49 13.7396 458.948 12.2188 458.031 11.2812C457.135 10.3229 455.74 9.84375 453.844 9.84375C452.177 9.84375 450.875 10.1771 449.938 10.8438C449 11.5104 448.531 12.4375 448.531 13.625C448.531 14.7083 448.958 15.5312 449.812 16.0938C450.667 16.6562 452.031 17.1354 453.906 17.5312L460.875 18.9375C465.208 19.7917 468.292 21.2917 470.125 23.4375C471.979 25.5625 472.906 28.4375 472.906 32.0625C472.906 36.625 471.312 40.2083 468.125 42.8125C464.938 45.4167 460.562 46.7188 455 46.7188ZM521.719 46H507.594L495.625 29.6875L490.438 35.5625V46H478.969V1.1875H490.438V20.1562L507.344 1.1875H520.844L503.5 20.7812L521.719 46ZM536.719 46H525.062V34.5938H536.719V46ZM570.875 46H559.25V1.1875H570.875V46ZM589.375 46H578.156L578.094 1.1875H590.594L608.375 29.0312H608.625C608.5 24.9271 608.438 20.7292 608.438 16.4375V1.1875H619.562V46H607.094L589.375 18.1562H589.125C589.292 23.9062 589.375 29.1146 589.375 33.7812V46ZM649.5 46H637.969V12.2188H624.031V1.1875H663.375V12.2188H649.5V46ZM701.594 46H667.781V1.1875H701.125V11.8125H679.375V18.4062H699.594V28.7188H679.375V35.375H701.594V46ZM739.406 46H708.281V1.1875H719.875V35H739.406V46ZM775.156 46H744.031V1.1875H755.625V35H775.156V46ZM789.031 46H777.406L786.938 1.1875H798.594L789.031 46ZM823.625 31.4688V21.9375H843.656V46H833.75L833.406 41.5312C830.698 45.0729 826.729 46.8438 821.5 46.8438C816.688 46.8438 812.542 45.8438 809.062 43.8438C805.604 41.8229 803.01 39.0833 801.281 35.625C799.573 32.1458 798.719 28.1354 798.719 23.5938C798.719 19.0312 799.646 14.9896 801.5 11.4688C803.375 7.94792 806.042 5.20833 809.5 3.25C812.958 1.29167 816.958 0.333333 821.5 0.375C827.958 0.395833 832.969 1.72917 836.531 4.375C840.094 7 842.302 11 843.156 16.375L831.188 18.5312C830.021 13.7604 826.906 11.375 821.844 11.375C818.323 11.375 815.594 12.4792 813.656 14.6875C811.719 16.8958 810.75 19.8854 810.75 23.6562C810.75 27.5521 811.74 30.625 813.719 32.875C815.719 35.1042 818.76 36.2188 822.844 36.2188C827.198 36.2188 830.188 34.6354 831.812 31.4688H823.625ZM884.531 46H850.719V1.1875H884.062V11.8125H862.312V18.4062H882.531V28.7188H862.312V35.375H884.531V46ZM902.5 46H891.281L891.219 1.1875H903.719L921.5 29.0312H921.75C921.625 24.9271 921.562 20.7292 921.562 16.4375V1.1875H932.688V46H920.219L902.5 18.1562H902.25C902.417 23.9062 902.5 29.1146 902.5 33.7812V46ZM962.625 46H951.094V12.2188H937.156V1.1875H976.5V12.2188H962.625V46ZM1032.5 32.6875L1034.88 46H1022.59L1021.06 36.5938C1020.56 33.1771 1018.41 31.4688 1014.59 31.4688H1007.88V46H996.281V1.1875H1017.53C1022.93 1.1875 1027.15 2.45833 1030.19 5C1033.23 7.54167 1034.75 11.0729 1034.75 15.5938C1034.75 17.9479 1034.08 20.1458 1032.75 22.1875C1031.44 24.2083 1029.6 25.75 1027.25 26.8125C1030.15 27.6042 1031.9 29.5625 1032.5 32.6875ZM1007.88 20.8438H1016.5C1018.44 20.8438 1019.94 20.4375 1021 19.625C1022.06 18.8125 1022.59 17.7083 1022.59 16.3125C1022.59 14.9167 1022.06 13.8229 1021 13.0312C1019.94 12.2188 1018.44 11.8125 1016.5 11.8125H1007.88V20.8438ZM1074.91 46H1041.09V1.1875H1074.44V11.8125H1052.69V18.4062H1072.91V28.7188H1052.69V35.375H1074.91V46ZM1104.06 46H1092.53V12.2188H1078.59V1.1875H1117.94V12.2188H1104.06V46ZM1142.62 46.8438C1136.21 46.8438 1131.21 45.1458 1127.62 41.75C1124.06 38.3333 1122.28 33.8438 1122.28 28.2812V1.1875H1133.88V27C1133.88 30.1667 1134.68 32.5208 1136.28 34.0625C1137.91 35.5833 1140.04 36.3438 1142.69 36.3438C1145.27 36.3438 1147.36 35.5729 1148.97 34.0312C1150.59 32.4688 1151.41 30.125 1151.41 27V1.1875H1162.94V28.2812C1162.94 34.0938 1161.09 38.6458 1157.41 41.9375C1153.72 45.2083 1148.79 46.8438 1142.62 46.8438ZM1206.31 32.6875L1208.69 46H1196.41L1194.88 36.5938C1194.38 33.1771 1192.22 31.4688 1188.41 31.4688H1181.69V46H1170.09V1.1875H1191.34C1196.74 1.1875 1200.96 2.45833 1204 5C1207.04 7.54167 1208.56 11.0729 1208.56 15.5938C1208.56 17.9479 1207.9 20.1458 1206.56 22.1875C1205.25 24.2083 1203.42 25.75 1201.06 26.8125C1203.96 27.6042 1205.71 29.5625 1206.31 32.6875ZM1181.69 20.8438H1190.31C1192.25 20.8438 1193.75 20.4375 1194.81 19.625C1195.88 18.8125 1196.41 17.7083 1196.41 16.3125C1196.41 14.9167 1195.88 13.8229 1194.81 13.0312C1193.75 12.2188 1192.25 11.8125 1190.31 11.8125H1181.69V20.8438ZM1226.19 46H1214.97L1214.91 1.1875H1227.41L1245.19 29.0312H1245.44C1245.31 24.9271 1245.25 20.7292 1245.25 16.4375V1.1875H1256.38V46H1243.91L1226.19 18.1562H1225.94C1226.1 23.9062 1226.19 29.1146 1226.19 33.7812V46ZM1281.62 46.7188C1276.08 46.7188 1271.58 45.4167 1268.12 42.8125C1264.69 40.1875 1262.74 36.5312 1262.28 31.8438L1273.5 30.3125C1273.94 32.6875 1274.85 34.3854 1276.25 35.4062C1277.67 36.4062 1279.6 36.9062 1282.06 36.9062C1286.12 36.9062 1288.16 35.6042 1288.16 33C1288.16 31.7708 1287.59 30.8125 1286.47 30.125C1285.36 29.4167 1283.41 28.8229 1280.59 28.3438L1276.06 27.5C1267.85 26 1263.75 21.6458 1263.75 14.4375C1263.75 9.91667 1265.24 6.45833 1268.22 4.0625C1271.22 1.64583 1275.49 0.4375 1281.03 0.4375C1291.39 0.4375 1296.92 4.97917 1297.62 14.0625L1286.28 15.8438C1286.11 13.7396 1285.57 12.2188 1284.66 11.2812C1283.76 10.3229 1282.36 9.84375 1280.47 9.84375C1278.8 9.84375 1277.5 10.1771 1276.56 10.8438C1275.62 11.5104 1275.16 12.4375 1275.16 13.625C1275.16 14.7083 1275.58 15.5312 1276.44 16.0938C1277.29 16.6562 1278.66 17.1354 1280.53 17.5312L1287.5 18.9375C1291.83 19.7917 1294.92 21.2917 1296.75 23.4375C1298.6 25.5625 1299.53 28.4375 1299.53 32.0625C1299.53 36.625 1297.94 40.2083 1294.75 42.8125C1291.56 45.4167 1287.19 46.7188 1281.62 46.7188ZM1314.91 46H1303.25V34.5938H1314.91V46Z"
    fill="black" />
</svg>